<svg width="33" height="33" viewBox="0 0 33 33" fill="none" xmlns="http://www.w3.org/2000/svg">
<path d="M16.4999 32.9997C25.6125 32.9997 32.9997 25.6125 32.9997 16.4999C32.9997 7.38724 25.6125 0 16.4999 0C7.38724 0 0 7.38724 0 16.4999C0 25.6125 7.38724 32.9997 16.4999 32.9997Z" fill="#55ACEE"/>
<path d="M26.6065 11.8578C25.8994 12.1713 25.1388 12.3834 24.3411 12.4781C25.1555 11.9901 25.7805 11.218 26.0756 10.2965C25.3135 10.7486 24.469 11.0766 23.5711 11.2533C22.8516 10.4871 21.8266 10.0083 20.6916 10.0083C18.5139 10.0083 16.7477 11.7745 16.7477 13.9522C16.7477 14.2614 16.7827 14.5622 16.8503 14.8511C13.5726 14.6867 10.6663 13.1166 8.72097 10.7298C8.38155 11.3122 8.18684 11.9901 8.18684 12.7128C8.18684 14.0808 8.88362 15.2884 9.9413 15.9955C9.2951 15.9752 8.68656 15.7979 8.15508 15.5017C8.15478 15.5184 8.15478 15.5352 8.15478 15.5517C8.15478 17.4626 9.51482 19.0565 11.3187 19.4186C10.9881 19.5091 10.639 19.5571 10.2798 19.5571C10.0251 19.5571 9.77835 19.5327 9.53776 19.4868C10.0395 21.0533 11.4958 22.1936 13.222 22.2257C11.8719 23.2837 10.1716 23.914 8.32331 23.914C8.00566 23.914 7.69095 23.8954 7.383 23.8587C9.12745 24.9781 11.201 25.6308 13.4282 25.6308C20.6825 25.6308 24.6496 19.6212 24.6496 14.409C24.6496 14.2381 24.6458 14.0678 24.6382 13.899C25.4094 13.3431 26.0779 12.6487 26.6065 11.8578Z" fill="#F1F2F2"/>
</svg>
